<svg xmlns="http://www.w3.org/2000/svg" width="117.67" height="54.2" data-name="Layer 2" viewBox="0 0 117.67 54.2"><path d="M64.28 13.61h29.51c.11 0 .2-.11.17-.22C91.94 5.78 85.04.14 76.82.11h-8.91c-4.77 0-8.64 3.86-8.65 8.63 0 2.71 2.3 4.87 5.02 4.87m29.51 26.93H64.28c-2.72 0-5.03 2.16-5.02 4.88.02 4.78 3.88 8.64 8.65 8.64h8.83c8.26 0 15.21-5.66 17.22-13.3a.178.178 0 0 0-.17-.22m2.23.09a20.4 20.4 0 0 1-7.13 11.41c-.78.63-.42 1.87.57 2 2.77.37 5.08-.02 6.69-.52 8.12-2.51 15.79-11.01 17.29-12.74.11-.12.02-.31-.14-.31-2.33.01-14.08.08-17.11 0-.09 0-.16.06-.18.14Zm0-27.07a20.45 20.45 0 0 0-7.11-11.39c-.78-.63-.42-1.89.58-2.02 2.76-.37 5.06.02 6.67.52 8.09 2.5 15.74 10.96 17.27 12.72.11.13.02.32-.15.32-2.38-.01-14.04-.08-17.08 0-.09 0-.16-.06-.18-.15M.04 28.5c-.23 3.32.44 6.88 3.33 9.9.04.04.09.06.14.06h109.75s.09-.02.13-.05c3.67-3.03 4.51-6.6 4.22-9.92 0-.1-.1-.18-.2-.18H.24c-.1 0-.19.08-.2.19m0-2.44c-.23-3.32.44-6.88 3.33-9.9.04-.04.09-.06.14-.06h109.75s.09.02.13.05c3.67 3.03 4.51 6.6 4.22 9.92 0 .1-.1.18-.2.18H.24c-.1 0-.19-.08-.2-.19m23.18 14.45h29.51c2.72 0 5.03 2.16 5.02 4.88-.02 4.78-3.88 8.64-8.65 8.64h-8.83c-8.26 0-15.21-5.66-17.22-13.3-.03-.11.06-.22.17-.22m-2.24.08c1.03 4.57 3.59 8.57 7.13 11.41.78.63.42 1.87-.57 2-2.77.37-5.08-.02-6.69-.52-8.12-2.51-15.79-11.01-17.29-12.74-.11-.12-.02-.31.14-.31 2.33.01 14.08.08 17.11 0 .09 0 .16.06.18.14Zm31.74-26.98H23.21c-.11 0-.2-.11-.17-.22C25.05 5.78 31.96.14 40.18.11h8.91c4.77 0 8.64 3.86 8.65 8.63 0 2.71-2.3 4.87-5.02 4.87m-31.74-.05C22.01 9 24.57 5.01 28.09 2.17c.78-.63.42-1.89-.58-2.02-2.76-.37-5.06.02-6.67.52C12.75 3.17 5.1 11.62 3.57 13.39c-.11.13-.02.32.15.32 2.38-.01 14.04-.08 17.08 0 .09 0 .16-.06.18-.15" data-name="Layer 1"/></svg>