<svg xmlns="http://www.w3.org/2000/svg" width="458.59" height="92.05" data-name="Layer 2" viewBox="0 0 458.59 92.05"><g data-name="Layer 1"><path d="M0 39.07C0 21.14 13.78.13 38 .13c15.52 0 29.7 9.1 30.77 25.29h-19c-.8-6.29-5.35-10.3-12.58-10.3-12.17 0-18.33 13.38-18.33 23.95 0 9.77 5.35 16.32 14.32 16.32 6.29 0 11.24-3.88 13.52-10.3h19.13c-3.75 15.65-16.86 25.42-33.45 25.42C14.72 70.78 0 58.34 0 39.07m66.63 12.44c0-18.33 14.05-22.21 29.3-23.95l17.53-2.01c1.2-.13 1.61-.4 1.87-1.21.27-.94.4-1.74.4-2.68 0-4.42-4.01-7.49-10.3-7.49-8.03 0-12.44 3.48-13.51 8.96H73.59C74.8 8.55 86.7-.02 106.64-.02c15.52 0 27.29 6.69 27.29 20.34 0 2.94-.4 4.82-1.2 9.37l-4.95 28.5c-.8 4.68-.8 6.42-.67 9.9l-.13.67h-17.79c.13-1.74.13-3.21.53-5.75-4.42 4.68-11.64 7.63-20.07 7.63-13.65 0-23.01-7.89-23.01-19.13Zm40.41.14c2.68-2.41 4.55-5.75 5.75-12.84l.13-.53c-1.74.53-3.74.94-5.75 1.2l-9.77 1.2c-5.22.67-12.04 1.87-12.04 8.83 0 4.01 3.48 6.29 8.96 6.29 5.08 0 9.5-1.34 12.71-4.15Zm69.84-33.19c-.94-.13-1.87-.13-3.21-.13-4.95 0-9.1 1.47-12.18 3.61-3.88 3.08-6.16 7.49-7.36 14.58l-5.62 32.25h-18.73l11.65-66.9h17.79l-1.34 7.22c4.55-5.08 13.38-7.22 21.81-7.22"/><path d="M217.04 18.59c-.94-.13-3.77-.26-5.11-.26-4.95 0-9.1 1.47-12.18 3.61-3.88 3.08-6.16 7.49-7.36 14.58l-5.62 32.25h-18.73l11.65-66.9h17.79l-1.34 7.22c4.55-5.08 11.64-7.22 20.07-7.22"/><path d="m204.98 91.12 2.81-14.85c2.41.27 4.15.4 6.82.4 5.35 0 7.89-1.74 10.3-6.02l1.61-2.81-13.11-65.97h18.06l8.16 42.82 21.81-42.82h19.4l-36.79 71.45c-8.3 15.79-14.32 18.73-26.89 18.73-4.01 0-8.16-.27-12.17-.94Zm82.95-52.45c0-21.41 15.52-38.53 38.67-38.53 19.27 0 34.12 11.91 34.12 31.84 0 21.41-15.52 38.53-38.67 38.53-19.27 0-34.12-11.91-34.12-31.84m53.93-6.83c0-10.04-5.75-16.59-15.92-16.59-12.44 0-19.13 10.84-19.13 23.42 0 9.9 6.02 16.73 15.92 16.73 12.44 0 19.13-11.11 19.13-23.55Zm26.75-29.97h16.59l-1.07 6.56c4.95-5.35 11.78-8.3 19.8-8.3 12.71 0 22.48 6.82 22.61 19.94 0 1.87-.27 4.01-.94 7.76l-7.22 40.94h-18.73l6.42-36.79c.67-3.88.94-5.89.94-7.63 0-5.62-3.75-9.9-10.44-9.9-8.83 0-12.71 6.69-14.32 15.92l-6.69 38.4h-18.73zm71.93 45.31v-9.2h-3.44v-1.93h9.04v1.93h-3.34v9.2zm6.94 0V36.05H451l2.03 7.67 2.04-7.67h3.52v11.13h-2.15V38.3l-2.41 8.88h-2.04l-2.39-8.88v8.88z"/></g></svg>