<svg xmlns="http://www.w3.org/2000/svg" width="575.48" height="97.21" data-name="Layer 2" viewBox="0 0 575.48 97.21"><g data-name="Layer 1"><path d="M0 52.44c0-14.7 11.3-31.92 31.15-31.92 12.73 0 24.35 5.41 25.23 18.69H40.8c-.66-5.16-4.39-6.4-10.31-6.4-9.98 0-15.03 10.97-15.03 19.64 0 8.01 4.39 13.38 11.74 13.38 5.16 0 9.21-3.18 11.08-8.45h15.69C50.9 70.22 40.15 78.22 26.54 78.22 12.06 78.44-.01 68.24-.01 52.44Z"/><path d="M54.25 62.64c0-15.03 11.52-18.21 24.02-19.64l14.37-1.64c.99-.11 1.32-.33 1.54-.99.22-.77.33-1.43.33-2.19 0-3.62-3.29-6.14-8.45-6.14-6.58 0-10.2 2.85-11.08 7.35H59.95c.99-11.96 10.75-18.98 27.1-18.98 12.73 0 22.38 5.48 22.38 16.67 0 2.41-.33 3.95-.99 7.68l-4.06 23.37c-.66 3.84-.66 5.27-.55 8.12l-.11.55H89.13c.11-1.43.11-2.63.44-4.72-3.62 3.84-9.54 6.25-16.46 6.25-11.19 0-18.87-6.47-18.87-15.69Zm33.13.11c2.19-1.97 3.73-4.72 4.72-10.53l.11-.44c-1.43.44-3.07.77-4.72.99l-8.01.99c-4.28.55-9.87 1.54-9.87 7.24 0 3.29 2.85 5.16 7.35 5.16 4.17 0 7.79-1.1 10.42-3.4Zm28.5-40.81h14.59l-1.1 5.92c3.73-4.17 9.54-5.98 16.46-5.98.55 0 1.1 0 1.64.11l-2.52 13.55c-.77-.11-1.54-.11-2.63-.11-4.06 0-7.46 1.21-9.98 2.96-3.18 2.52-5.05 6.14-6.03 11.96l-4.61 26.44h-15.36z"/><path d="M146.94 21.94h14.59l-1.1 5.92c3.73-4.17 9.54-5.98 16.45-5.98.55 0 1.1 0 1.65.11l-2.52 13.55c-.77-.11-1.53-.11-2.63-.11-4.06 0-7.46 1.21-9.98 2.96-3.18 2.52-5.05 6.14-6.03 11.96l-4.61 26.44H137.4z"/><path d="M178.43 21.94h15.36l-9.65 54.85h-15.36zM182.16 0h15.69l-2.3 12.94h-15.69zm6.47 62.64c0-15.03 11.52-18.21 24.03-19.64l14.37-1.64c.99-.11 1.32-.33 1.54-.99.22-.77.33-1.43.33-2.19 0-3.62-3.29-6.14-8.45-6.14-6.58 0-10.2 2.85-11.08 7.35h-15.03c.99-11.96 10.75-18.98 27.1-18.98 12.72 0 22.38 5.48 22.38 16.67 0 2.41-.33 3.95-.99 7.68l-4.06 23.37c-.66 3.84-.66 5.27-.55 8.12l-.11.55h-14.59c.11-1.43.11-2.63.44-4.72-3.62 3.84-9.54 6.25-16.45 6.25-11.19 0-18.87-6.47-18.87-15.69Zm33.13.11c2.19-1.97 3.73-4.72 4.72-10.53l.11-.44c-1.42.44-3.07.77-4.72.99l-8.01.99c-4.28.55-9.87 1.54-9.87 7.24 0 3.29 2.85 5.16 7.35 5.16 4.17 0 7.79-1.1 10.42-3.4Zm18.21 16.12h15.69c1.21 4.06 7.9 5.92 12.18 5.92s7.79-1.32 10.09-3.73c1.32-1.54 2.3-3.4 2.85-6.8l.44-2.63c-4.06 2.85-8.89 4.39-14.37 4.39-12.29 0-23.48-8.67-23.48-24.35.11-16.56 11.08-31.15 27.86-31.15 7.13-.11 13.71 2.74 17.66 7.9l1.21-6.47h14.7l-9.43 53.32c-1.32 7.46-3.84 11.96-7.68 15.36-4.94 4.17-11.85 6.58-20.07 6.58-11.41.33-26.77-6.47-27.65-18.32Zm45.74-33.02c0-7.68-4.5-12.84-11.96-12.84-9.76 0-14.81 9.43-14.81 18.1 0 7.57 4.72 12.83 12.29 12.83 9.65 0 14.48-9.21 14.48-18.1Zm15.69 6.81c0-16.13 12.18-32.14 30.83-32.14 15.36 0 25.12 11.3 25.12 27.86 0 2.08-.11 4.17-.44 6.36h-40.7c.11 6.58 4.72 11.19 12.29 11.19 4.72 0 8.56-2.19 10.97-6.03h16.24c-4.17 11.3-14.7 18.32-27.86 18.32-17.55 0-26.44-11.74-26.44-25.56Zm41.47-9.33c-.77-7.68-6.36-10.53-11.85-10.53-6.47 0-11.3 3.95-13.06 10.53h24.9Zm26.65 9.11c0-14.7 11.3-31.92 31.16-31.92 12.72 0 24.35 7.46 25.23 20.73h-15.58c-.66-5.16-4.39-8.45-10.31-8.45-9.98 0-15.03 10.97-15.03 19.64 0 8.01 4.39 13.38 11.74 13.38 5.16 0 9.22-3.18 11.08-8.45h15.69c-3.07 12.84-13.82 20.84-27.43 20.84-14.48.22-26.55-9.98-26.55-25.78ZM434.47 0h15.36l-13.49 76.79h-15.36zm7.67 62.2c0-1.54.22-3.29.77-6.36l6.03-33.9h15.36l-5.38 30.5c-.55 3.18-.77 4.83-.77 6.25 0 4.39 2.96 7.79 8.23 7.79 7.02 0 10.09-5.48 11.41-13.05l5.48-31.48h15.36l-9.65 54.85h-13.6l.88-5.38c-3.95 4.39-9.43 6.8-15.91 6.8-10.2 0-18.1-5.49-18.21-16.02M505.88 0h15.36l-4.39 24.68c3.95-2.74 8.67-4.28 13.93-4.28 13.27 0 22.82 10.42 22.82 25.01 0 17.66-10.75 32.69-28.08 32.69-7.68 0-13.6-2.85-17.22-7.79l-1.1 6.47h-14.7zm5.81 52.22c0 8.34 4.17 13.49 11.52 13.49 10.2 0 14.81-9.43 14.81-19.53 0-8.23-4.17-13.71-11.52-13.71-9.98 0-14.81 9.32-14.81 19.75m51.54.16v-6.25h-2.33v-1.31h6.14v1.31h-2.27v6.25h-1.53Zm4.71 0v-7.56h2.39l1.37 5.2 1.38-5.2h2.39v7.56h-1.46v-6.03l-1.63 6.03H571l-1.62-6.03v6.03z"/></g></svg>